<svg xmlns="http://www.w3.org/2000/svg" xmlns:xlink="http://www.w3.org/1999/xlink" zoomAndPan="magnify" preserveAspectRatio="xMidYMid meet" version="1.0" viewBox="104.25 163 158.49 48.99"><defs><g/></defs><path stroke-linecap="round" transform="matrix(0, -0.75, 0.75, 0, 157.007689, 211.494128)" fill="none" stroke-linejoin="miter" d="M 2.002587 2.000164 L 61.986966 2.000164 " stroke="#ffffff" stroke-width="4" stroke-opacity="1" stroke-miterlimit="4"/><path fill="#8e1616" d="M 135.496094 204.132812 L 130.230469 207.148438 L 130.230469 184.324219 L 135.496094 178.691406 Z M 135.496094 204.132812 " fill-opacity="1" fill-rule="nonzero"/><path fill="#8e1616" d="M 128.585938 205.242188 L 123.320312 207.871094 L 123.320312 180.210938 L 128.585938 174.582031 Z M 128.585938 205.242188 " fill-opacity="1" fill-rule="nonzero"/><path fill="#8e1616" d="M 121.675781 206.394531 L 116.410156 206.753906 L 116.410156 197.804688 L 121.675781 192.171875 Z M 121.675781 206.394531 " fill-opacity="1" fill-rule="nonzero"/><path fill="#1d1616" d="M 107.746094 196.652344 C 105.085938 189.300781 106.699219 180.746094 112.59375 174.851562 C 119.101562 168.34375 128.855469 167.050781 136.652344 170.976562 C 132.355469 164.484375 116.925781 165.167969 110.042969 172.941406 C 100.152344 184.113281 106.898438 195.644531 107.746094 196.652344 Z M 107.746094 196.652344 " fill-opacity="1" fill-rule="nonzero"/><path fill="#8e1616" d="M 141.132812 171.296875 C 138.601562 168.765625 135.609375 166.972656 132.429688 165.914062 C 134.167969 166.851562 135.804688 168.054688 137.269531 169.523438 C 145.390625 177.644531 145.390625 190.8125 137.269531 198.933594 C 129.148438 207.054688 115.984375 207.054688 107.863281 198.933594 C 106.394531 197.464844 105.191406 195.832031 104.253906 194.09375 C 105.3125 197.273438 107.105469 200.261719 109.636719 202.792969 C 118.332031 211.488281 132.433594 211.488281 141.132812 202.792969 C 149.828125 194.09375 149.828125 179.996094 141.132812 171.296875 Z M 141.132812 171.296875 " fill-opacity="1" fill-rule="nonzero"/><g fill="#ffffff" fill-opacity="1"><g transform="translate(172.259304, 182.103615)"><g><path d="M 7.34375 0.234375 C 6.21875 0.234375 5.242188 0.0390625 4.421875 -0.34375 C 3.597656 -0.726562 2.914062 -1.25 2.375 -1.90625 C 1.84375 -2.570312 1.441406 -3.335938 1.171875 -4.203125 C 0.910156 -5.066406 0.78125 -5.96875 0.78125 -6.90625 C 0.78125 -7.851562 0.910156 -8.753906 1.171875 -9.609375 C 1.441406 -10.460938 1.84375 -11.21875 2.375 -11.875 C 2.914062 -12.539062 3.597656 -13.0625 4.421875 -13.4375 C 5.242188 -13.820312 6.21875 -14.015625 7.34375 -14.015625 C 8.457031 -14.015625 9.421875 -13.832031 10.234375 -13.46875 C 11.046875 -13.101562 11.695312 -12.59375 12.1875 -11.9375 C 12.675781 -11.28125 12.988281 -10.515625 13.125 -9.640625 L 10.609375 -9.640625 C 10.460938 -10.390625 10.09375 -10.96875 9.5 -11.375 C 8.90625 -11.78125 8.175781 -11.984375 7.3125 -11.984375 C 6.40625 -11.984375 5.640625 -11.765625 5.015625 -11.328125 C 4.398438 -10.890625 3.929688 -10.289062 3.609375 -9.53125 C 3.296875 -8.769531 3.140625 -7.894531 3.140625 -6.90625 C 3.140625 -5.914062 3.296875 -5.035156 3.609375 -4.265625 C 3.929688 -3.492188 4.398438 -2.890625 5.015625 -2.453125 C 5.640625 -2.023438 6.40625 -1.8125 7.3125 -1.8125 C 8.175781 -1.8125 8.90625 -2.023438 9.5 -2.453125 C 10.09375 -2.878906 10.460938 -3.519531 10.609375 -4.375 L 13.125 -4.375 C 12.914062 -2.976562 12.3125 -1.859375 11.3125 -1.015625 C 10.320312 -0.179688 9 0.234375 7.34375 0.234375 Z M 7.34375 0.234375 "/></g></g></g><g fill="#ffffff" fill-opacity="1"><g transform="translate(189.135579, 182.103615)"><g><path d="M 10.421875 0 L 1.28125 0 L 1.28125 -13.8125 L 10.421875 -13.8125 L 10.421875 -11.75 L 3.578125 -11.75 L 3.578125 -7.9375 L 9.65625 -7.9375 L 9.65625 -5.90625 L 3.578125 -5.90625 L 3.578125 -2.0625 L 10.421875 -2.0625 Z M 10.421875 0 "/></g></g></g><g fill="#ffffff" fill-opacity="1"><g transform="translate(203.461687, 182.103615)"><g><path d="M 9.078125 -6.03125 L 11.640625 0 L 9.15625 0 L 6.875 -5.625 L 3.578125 -5.625 L 3.578125 0 L 1.28125 0 L 1.28125 -13.8125 L 6.984375 -13.8125 C 7.847656 -13.8125 8.601562 -13.664062 9.25 -13.375 C 9.90625 -13.09375 10.414062 -12.65625 10.78125 -12.0625 C 11.15625 -11.476562 11.34375 -10.710938 11.34375 -9.765625 C 11.34375 -8.847656 11.144531 -8.070312 10.75 -7.4375 C 10.351562 -6.8125 9.796875 -6.34375 9.078125 -6.03125 Z M 3.578125 -11.75 L 3.578125 -7.640625 L 6.671875 -7.640625 C 7.460938 -7.640625 8.0625 -7.816406 8.46875 -8.171875 C 8.875 -8.523438 9.078125 -9.035156 9.078125 -9.703125 C 9.078125 -10.359375 8.867188 -10.863281 8.453125 -11.21875 C 8.035156 -11.570312 7.441406 -11.75 6.671875 -11.75 Z M 3.578125 -11.75 "/></g></g></g><g fill="#ffffff" fill-opacity="1"><g transform="translate(218.872973, 182.103615)"><g><path d="M 5.234375 0 L 1.28125 0 L 1.28125 -13.8125 L 5.25 -13.8125 C 7.5625 -13.8125 9.332031 -13.210938 10.5625 -12.015625 C 11.789062 -10.816406 12.40625 -9.109375 12.40625 -6.890625 C 12.40625 -4.679688 11.789062 -2.976562 10.5625 -1.78125 C 9.332031 -0.59375 7.554688 0 5.234375 0 Z M 3.578125 -11.75 L 3.578125 -2.0625 L 5.21875 -2.0625 C 6.15625 -2.0625 6.988281 -2.203125 7.71875 -2.484375 C 8.457031 -2.765625 9.039062 -3.257812 9.46875 -3.96875 C 9.894531 -4.675781 10.109375 -5.648438 10.109375 -6.890625 C 10.109375 -8.046875 9.90625 -8.976562 9.5 -9.6875 C 9.09375 -10.40625 8.519531 -10.925781 7.78125 -11.25 C 7.039062 -11.582031 6.1875 -11.75 5.21875 -11.75 Z M 3.578125 -11.75 "/></g></g></g><g fill="#ffffff" fill-opacity="1"><g transform="translate(235.206663, 182.103615)"><g><path d="M 2.546875 0 L 0.15625 0 L 5.109375 -13.8125 L 7.640625 -13.8125 L 12.578125 0 L 10.1875 0 L 9.171875 -3.015625 L 3.578125 -3.015625 Z M 6.375 -11.34375 L 4.25 -5.03125 L 8.484375 -5.03125 Z M 6.375 -11.34375 "/></g></g></g><g fill="#ffffff" fill-opacity="1"><g transform="translate(251.070105, 182.103615)"><g><path d="M 6.609375 0.234375 C 5.941406 0.234375 5.273438 0.15625 4.609375 0 C 3.953125 -0.164062 3.34375 -0.429688 2.78125 -0.796875 C 2.226562 -1.160156 1.765625 -1.632812 1.390625 -2.21875 C 1.015625 -2.8125 0.78125 -3.53125 0.6875 -4.375 L 3.015625 -4.375 C 3.171875 -3.695312 3.4375 -3.164062 3.8125 -2.78125 C 4.1875 -2.394531 4.625 -2.125 5.125 -1.96875 C 5.625 -1.8125 6.128906 -1.734375 6.640625 -1.734375 C 7.453125 -1.734375 8.109375 -1.90625 8.609375 -2.25 C 9.117188 -2.59375 9.375 -3.113281 9.375 -3.8125 C 9.375 -4.351562 9.207031 -4.769531 8.875 -5.0625 C 8.539062 -5.363281 8.109375 -5.59375 7.578125 -5.75 C 7.046875 -5.914062 6.472656 -6.066406 5.859375 -6.203125 C 5.304688 -6.328125 4.75 -6.460938 4.1875 -6.609375 C 3.632812 -6.765625 3.128906 -6.976562 2.671875 -7.25 C 2.210938 -7.519531 1.84375 -7.878906 1.5625 -8.328125 C 1.289062 -8.773438 1.15625 -9.351562 1.15625 -10.0625 C 1.15625 -10.914062 1.363281 -11.632812 1.78125 -12.21875 C 2.195312 -12.800781 2.765625 -13.242188 3.484375 -13.546875 C 4.203125 -13.859375 5.015625 -14.015625 5.921875 -14.015625 C 6.773438 -14.015625 7.582031 -13.867188 8.34375 -13.578125 C 9.101562 -13.285156 9.75 -12.828125 10.28125 -12.203125 C 10.8125 -11.578125 11.148438 -10.78125 11.296875 -9.8125 L 9 -9.8125 C 8.800781 -10.601562 8.414062 -11.171875 7.84375 -11.515625 C 7.269531 -11.867188 6.613281 -12.046875 5.875 -12.046875 C 5.144531 -12.046875 4.554688 -11.890625 4.109375 -11.578125 C 3.671875 -11.265625 3.453125 -10.828125 3.453125 -10.265625 C 3.453125 -9.785156 3.601562 -9.410156 3.90625 -9.140625 C 4.21875 -8.878906 4.617188 -8.675781 5.109375 -8.53125 C 5.609375 -8.394531 6.148438 -8.257812 6.734375 -8.125 C 7.304688 -8 7.882812 -7.851562 8.46875 -7.6875 C 9.050781 -7.519531 9.582031 -7.296875 10.0625 -7.015625 C 10.539062 -6.734375 10.925781 -6.347656 11.21875 -5.859375 C 11.519531 -5.367188 11.671875 -4.738281 11.671875 -3.96875 C 11.671875 -2.6875 11.226562 -1.664062 10.34375 -0.90625 C 9.46875 -0.144531 8.222656 0.234375 6.609375 0.234375 Z M 6.609375 0.234375 "/></g></g></g><g fill="#ffffff" fill-opacity="1"><g transform="translate(172.259304, 206.92691)"><g><path d="M 3.578125 0 L 1.28125 0 L 1.28125 -13.8125 L 6.984375 -13.8125 C 7.847656 -13.8125 8.601562 -13.664062 9.25 -13.375 C 9.90625 -13.09375 10.414062 -12.65625 10.78125 -12.0625 C 11.15625 -11.476562 11.34375 -10.710938 11.34375 -9.765625 C 11.34375 -8.898438 11.160156 -8.160156 10.796875 -7.546875 C 10.441406 -6.929688 9.929688 -6.457031 9.265625 -6.125 C 8.609375 -5.789062 7.847656 -5.625 6.984375 -5.625 L 3.578125 -5.625 Z M 3.578125 -11.75 L 3.578125 -7.640625 L 6.671875 -7.640625 C 7.460938 -7.640625 8.0625 -7.816406 8.46875 -8.171875 C 8.875 -8.523438 9.078125 -9.035156 9.078125 -9.703125 C 9.078125 -10.359375 8.867188 -10.863281 8.453125 -11.21875 C 8.035156 -11.570312 7.441406 -11.75 6.671875 -11.75 Z M 3.578125 -11.75 "/></g></g></g><g fill="#ffffff" fill-opacity="1"><g transform="translate(187.272689, 206.92691)"><g><path d="M 2.546875 0 L 0.15625 0 L 5.109375 -13.8125 L 7.640625 -13.8125 L 12.578125 0 L 10.1875 0 L 9.171875 -3.015625 L 3.578125 -3.015625 Z M 6.375 -11.34375 L 4.25 -5.03125 L 8.484375 -5.03125 Z M 6.375 -11.34375 "/></g></g></g><g fill="#ffffff" fill-opacity="1"><g transform="translate(203.136131, 206.92691)"><g><path d="M 1.984375 0 L 0.234375 0 L 0.234375 -2.0625 L 1.984375 -2.0625 C 2.484375 -2.0625 2.863281 -2.175781 3.125 -2.40625 C 3.394531 -2.644531 3.53125 -3.039062 3.53125 -3.59375 L 3.53125 -13.8125 L 5.84375 -13.8125 L 5.84375 -3.578125 C 5.84375 -2.742188 5.722656 -2.0625 5.484375 -1.53125 C 5.253906 -1 4.859375 -0.609375 4.296875 -0.359375 C 3.734375 -0.117188 2.960938 0 1.984375 0 Z M 1.984375 0 "/></g></g></g><g fill="#ffffff" fill-opacity="1"><g transform="translate(213.338558, 206.92691)"><g><path d="M 2.546875 0 L 0.15625 0 L 5.109375 -13.8125 L 7.640625 -13.8125 L 12.578125 0 L 10.1875 0 L 9.171875 -3.015625 L 3.578125 -3.015625 Z M 6.375 -11.34375 L 4.25 -5.03125 L 8.484375 -5.03125 Z M 6.375 -11.34375 "/></g></g></g><g fill="#ffffff" fill-opacity="1"><g transform="translate(229.202001, 206.92691)"><g><path d="M 3.578125 0 L 1.28125 0 L 1.28125 -13.8125 L 3.578125 -13.8125 L 3.578125 -7.625 L 8.734375 -13.8125 L 11.578125 -13.8125 L 5.875 -7.140625 L 11.796875 0 L 8.90625 0 L 3.578125 -6.5 Z M 3.578125 0 "/></g></g></g></svg>