<svg xmlns="http://www.w3.org/2000/svg" fill="none" viewBox="0.6 0.64 194.5 52.32">
<g clip-path="url(#clip0_10_3230)">
<mask id="mask0_10_3230" style="mask-type:luminance" maskUnits="userSpaceOnUse" x="18" y="30" width="35" height="23">
<path d="M18.4844 30.574H52.1511V52.1345H18.4844V30.574Z" fill="white"/>
</mask>
<g mask="url(#mask0_10_3230)">
<path d="M41.276 37.9197C37.8697 42.3304 32.4972 45.1851 26.4658 45.1851C25.0392 45.1851 23.6371 45.0324 22.2811 44.7272L18.4925 51.0981C21.058 51.9175 23.7321 52.3353 26.4658 52.3353C29.9561 52.3353 33.3434 51.6605 36.5327 50.3295C39.6135 49.0414 42.3797 47.2016 44.7527 44.8584C46.8084 42.8285 48.4817 40.5093 49.7374 37.9492C49.9326 37.5528 50.1198 37.1485 50.2933 36.7387C51.1124 34.8267 51.6846 32.8423 52.01 30.8043H30.5744L26.3274 37.9197H41.276Z" fill="url(#paint0_linear_10_3230)"/>
</g>
<mask id="mask1_10_3230" style="mask-type:luminance" maskUnits="userSpaceOnUse" x="0" y="1" width="53" height="48">
<path d="M0.601501 1.23137H52.1511V48.3987H0.601501V1.23137Z" fill="white"/>
</mask>
<g mask="url(#mask1_10_3230)">
<path d="M16.1358 3.38179C12.9845 4.73953 10.1748 6.67571 7.78829 9.13677C7.40861 9.52776 7.03978 9.93481 6.6845 10.3472L6.68722 10.3499C6.62755 10.4168 6.56789 10.4865 6.50822 10.5561L16.1765 26.8007L10.9098 35.6542L1.5046 20.0844C0.910669 22.2509 0.601501 24.5057 0.601501 26.8007C0.601501 29.4493 1.0083 32.0362 1.80563 34.5214C2.04699 35.2712 2.32362 36.013 2.6355 36.7414C3.61724 39.0311 4.91628 41.1413 6.51094 43.0454C6.93672 43.5542 7.3842 44.0496 7.85066 44.529L7.86151 44.5424L8.16254 44.8396L8.17881 44.8584C9.35039 46.0153 10.6196 47.049 11.9729 47.9568C11.9756 47.9568 11.9756 47.9568 11.9783 47.9568L24.5647 26.8007L15.6449 11.8148C18.7773 9.59739 22.5171 8.39765 26.4658 8.39765C32.4973 8.39765 37.867 11.2684 41.2733 15.6416H26.3275L30.5772 22.7972H52.0101C51.6846 20.7565 51.1124 18.7748 50.2934 16.8601C50.1171 16.453 49.9327 16.0486 49.7374 15.6523C48.4818 13.0922 46.8085 10.773 44.7528 8.74311C42.3798 6.39988 39.6135 4.55742 36.5327 3.27199C33.3407 1.94103 29.9534 1.2635 26.4658 1.2635C22.8778 1.2635 19.401 1.97585 16.1358 3.38179Z" fill="url(#paint1_linear_10_3230)"/>
</g>
<path d="M68.6346 51.0847V2.51414" stroke="#FFFFFF" stroke-width="3.75" stroke-linecap="round"/>
<path d="M92.4382 34.2796H89.9649V21.768H85.2786V19.5721H97.1679V21.768H92.4382V34.2796Z" fill="#ffffff"/>
<path d="M92.4382 34.2796H89.9649V21.768H85.2786V19.5721H97.1679V21.768H92.4382V34.2796Z" stroke="white"/>
<path d="M103.51 34.2796H100.928L106.266 19.5721H108.999L114.326 34.2796H111.744L110.659 31.0553H104.617L103.51 34.2796ZM107.632 22.1858L105.344 28.9236H109.911L107.632 22.1858Z" fill="#ffffff"/>
<path d="M103.51 34.2796H100.928L106.266 19.5721H108.999L114.326 34.2796H111.744L110.659 31.0553H104.617L103.51 34.2796ZM107.632 22.1858L105.344 28.9236H109.911L107.632 22.1858Z" stroke="white"/>
<path d="M121.021 34.2796H118.092L123.104 26.9098L118.125 19.5721H121.075L124.807 25.2387L128.539 19.5721H131.489L126.51 26.9098L131.522 34.2796H128.593L124.807 28.7629L121.021 34.2796Z" fill="#ffffff"/>
<path d="M121.021 34.2796H118.092L123.104 26.9098L118.125 19.5721H121.075L124.807 25.2387L128.539 19.5721H131.489L126.51 26.9098L131.522 34.2796H128.593L124.807 28.7629L121.021 34.2796Z" stroke="white"/>
<path d="M142.511 34.2796H140.038V21.768H135.351V19.5721H147.241V21.768H142.511V34.2796Z" fill="#ffffff"/>
<path d="M142.511 34.2796H140.038V21.768H135.351V19.5721H147.241V21.768H142.511V34.2796Z" stroke="white"/>
<path d="M153.583 34.2796H151.001L156.338 19.5721H159.072L164.398 34.2796H161.816L160.732 31.0553H154.689L153.583 34.2796ZM157.705 22.1858L155.416 28.9236H159.983L157.705 22.1858Z" fill="#ffffff"/>
<path d="M153.583 34.2796H151.001L156.338 19.5721H159.072L164.398 34.2796H161.816L160.732 31.0553H154.689L153.583 34.2796ZM157.705 22.1858L155.416 28.9236H159.983L157.705 22.1858Z" stroke="white"/>
<path d="M178.253 34.2796H169.336V19.5721H171.81V32.0836H178.253V34.2796Z" fill="#ffffff"/>
<path d="M178.253 34.2796H169.336V19.5721H171.81V32.0836H178.253V34.2796Z" stroke="white"/>
<path d="M185.729 34.2796H183.255V19.5721H185.729V26.1599L191.294 19.5721H194.364L188.213 26.6634L194.602 34.2796H191.478L185.729 27.3597V34.2796Z" fill="#ffffff"/>
<path d="M185.729 34.2796H183.255V19.5721H185.729V26.1599L191.294 19.5721H194.364L188.213 26.6634L194.602 34.2796H191.478L185.729 27.3597V34.2796Z" stroke="white"/>
</g>
<defs>
<linearGradient id="paint0_linear_10_3230" x1="35.2513" y1="30.8043" x2="35.2513" y2="52.3353" gradientUnits="userSpaceOnUse">
<stop stop-color="#8E1616"/>
<stop offset="1" stop-color="#1D1616"/>
</linearGradient>
<linearGradient id="paint1_linear_10_3230" x1="26.3058" y1="1.2635" x2="26.3058" y2="47.9568" gradientUnits="userSpaceOnUse">
<stop stop-color="#8E1616"/>
<stop offset="1" stop-color="#8E1616"/>
</linearGradient>
<clipPath id="clip0_10_3230">
<rect width="194" height="52" fill="white" transform="translate(0.599976 0.800003)"/>
</clipPath>
</defs>
</svg>